# xmcd
#
# Track frame offsets: 
#        150
#        674
#        19819
#        36825
#        58211
#        74785
#        91422
#        106034
#        122182
#        140363
#        156671
#        191362
#        208447
#        225919
#        244325
#        261690
#        282234
#        299139
#        317930
#        333586
#
# Disc length: 4675 seconds
#
# Revision: 0
# Processed by: cddbd v1.5.2PL0 Copyright (c) Steve Scherf et al.
# Submitted via: ExactAudioCopy v0.99pb4
#
DISCID=45124114
DTITLE=Various Artist - prevue promo 1090A-4
DYEAR=2002
DGENRE=pop
TTITLE0=blank - data
TTITLE1=Cranberries, The - This Is The Day
TTITLE2=Kylie Minogue - Love At First Sight(Radio Edit)
TTITLE3=Garth Brooks - When You Come Back To Me Again
TTITLE4=LMNT - Juliet
TTITLE5=Luis Fonsi - Secret(Rhythm Mix)
TTITLE6=Sharissa - No Half Steppin
TTITLE7=Sharissa and Busta Rhymes - No Half Steppin(Remix)
TTITLE8=Nappy Roots - AwNaw(Lyric - "Squeaky Clean Edit")
TTITLE9=Nivea with Brian and Brandon Casey of Jagged Edge - Don't Mess W
TTITLE9=ith My Man
TTITLE10=Gov't Mule - Soulshine(Lyric - Album Version)
TTITLE11=Anelique Kidjo with Dave Matthews - Iwoya
TTITLE12=John Wesley Harding - Negative Love
TTITLE13=Evamore - 30 Day Hump
TTITLE14=30 Seconds To Mars - Capricorn (A Brand New Name)
TTITLE15=Chemical Brothers, The - Test, The
TTITLE16=System Of A Down - Aerials
TTITLE17=Headstrong - Swing Harder
TTITLE18=Nonpoint - Your Signs
TTITLE19=Course Of Nature - Wall Of Shame(Radio Edit)
EXTD=
EXTT0=
EXTT1=
EXTT2=
EXTT3=
EXTT4=
EXTT5=
EXTT6=
EXTT7=
EXTT8=
EXTT9=
EXTT10=
EXTT11=
EXTT12=
EXTT13=
EXTT14=
EXTT15=
EXTT16=
EXTT17=
EXTT18=
EXTT19=
PLAYORDER=
